<svg width="802" height="50" viewBox="0 0 802 50" fill="none" xmlns="http://www.w3.org/2000/svg">
<g clip-path="url(#clip0_765_96297)">
<path d="M72.7325 26.4791H73.0067C74.5342 26.4791 75.7483 25.2649 75.7483 23.7374V21.3482C75.7483 19.9382 75.5917 19.2724 75.0433 18.5282C74.26 17.5491 72.8892 17.1182 71.5575 17.1182H59.7292H54.9508V20.6432V24.7166V26.4791V28.2416V32.5499V36.4274H59.7292H70.1083C71.8317 36.4274 73.8683 36.1924 74.9258 35.0566C75.905 33.9991 75.9442 33.1766 75.9442 30.5916V29.7299C75.9833 27.9674 74.5342 26.4791 72.7325 26.4791ZM59.7683 20.6432H69.795C70.3042 20.6432 71.3617 20.8391 71.3617 21.6616V23.7766C71.3617 24.4424 70.3825 24.7166 69.9908 24.7166H59.7683V20.6432ZM71.44 31.5316C71.44 32.1191 70.97 32.5891 70.3825 32.5891H59.7683V28.2807H70.3042C70.9308 28.2807 71.44 28.7899 71.44 29.4166V31.5316Z" fill="#B7BFC7"/>
<path d="M99.405 36.4666H104.888L93.8042 17.1574H89.3L78.4117 36.4666H83.3075L85.5792 32.2757H97.1725L99.405 36.4666ZM87.6158 28.5157L91.415 21.5441L95.1358 28.5157H87.6158Z" fill="#B7BFC7"/>
<path d="M111.077 17.1574H110.372H109.275H107.787V36.4666H112.173V26.7532L112.056 23.7766L127.057 36.4666H127.84H129.759H130.425V17.1574H126.038V26.8707L126.156 29.8474L111.077 17.1574Z" fill="#B7BFC7"/>
<path d="M155.139 36.4666H140.217C138.885 36.4666 137.436 36.1532 136.652 35.2132C135.987 34.4691 135.869 33.1766 135.869 32.1191V21.5049C135.869 20.2907 136.026 18.9982 136.809 18.2149C137.592 17.4316 139.002 17.1574 140.217 17.1574H155.139C156.471 17.1574 157.92 17.4316 158.703 18.3716C159.33 19.1157 159.487 20.4474 159.487 21.5049V32.1191C159.487 33.2157 159.369 34.4691 158.703 35.2132C157.92 36.1532 156.471 36.4666 155.139 36.4666ZM140.647 21.0349V32.5891H154.708V21.0349H140.647Z" fill="#B7BFC7"/>
<path d="M181.498 36.4666H188.274L179.618 29.3382H182.282C184.318 29.3382 186.003 27.6932 186.003 25.6174V20.8391C186.003 18.8024 184.358 17.1182 182.282 17.1182H169.866H165.088V20.7999V25.5782V29.2599V36.4666H169.866V29.3382H173.665L181.498 36.4666ZM169.866 20.8391H180.363C180.872 20.8391 181.263 21.2307 181.263 21.7399V24.7557C181.263 25.2649 180.872 25.6566 180.363 25.6566H169.866V20.8391Z" fill="#B7BFC7"/>
<path d="M189.527 17.1574V20.9957H198.183V36.4666H202.962V20.9957H211.578V17.1574H202.962H198.183H189.527Z" fill="#B7BFC7"/>
<path d="M229.282 24.5207H220.234V20.8782H234.804V17.1574H220.234H215.456V20.8782V24.5207V28.2416V32.5499V36.4666H220.234H235V32.5499H220.234V28.2416H229.282V24.5207Z" fill="#B7BFC7"/>
<path d="M25.0667 10.499C13.9042 10.499 4.85666 13.4365 4.85666 17.079C4.85666 20.134 11.1625 22.6799 19.74 23.424L23.265 12.5749L23.8917 23.6199C24.2833 23.6199 24.675 23.6199 25.1058 23.6199C36.2683 23.6199 45.3158 20.6824 45.3158 17.0398C45.2767 13.4757 36.2292 10.499 25.0667 10.499Z" fill="#B7BFC7"/>
<path d="M19.6225 23.8157C8.73417 23.9332 0 27.3799 0 31.6491C0 35.2524 6.18833 38.2682 14.6483 39.2082L19.6225 23.8157Z" fill="#B7BFC7"/>
<path d="M23.8525 23.9332L24.7142 39.2866C33.6833 38.5032 40.3417 35.3699 40.3417 31.6491C40.3808 27.8107 33.2525 24.5991 23.8525 23.9332Z" fill="#B7BFC7"/>
</g>
<path fill-rule="evenodd" clip-rule="evenodd" d="M323.345 35.7286L307.384 28.0411V11.1286L323.345 35.7286ZM324.626 38.6572L307.421 31.3724V38.6572H324.626Z" fill="#B7BFC7"/>
<path fill-rule="evenodd" clip-rule="evenodd" d="M291.46 35.7286L307.384 11.1286V28.0411L291.46 35.7286ZM290.179 38.6572H307.384V31.3724L290.179 38.6572Z" fill="#B7BFC7"/>
<path fill-rule="evenodd" clip-rule="evenodd" d="M326.017 33.6053C326.639 33.6053 327.152 34.1178 327.152 34.7402C327.152 35.3625 326.639 35.875 326.017 35.875C325.395 35.875 324.882 35.3625 324.882 34.7402C324.882 34.1178 325.395 33.6053 326.017 33.6053ZM326.017 35.692C326.566 35.692 326.969 35.2527 326.969 34.7402C326.969 34.1911 326.529 33.7884 326.017 33.7884C325.504 33.7884 325.065 34.2277 325.065 34.7402C325.065 35.2893 325.468 35.692 326.017 35.692ZM325.761 35.3991H325.614V34.0812H326.127C326.42 34.0812 326.529 34.1911 326.529 34.4473C326.529 34.6303 326.383 34.8134 326.2 34.8134L326.603 35.3991H326.42L326.017 34.8134H325.797L325.761 35.3991ZM325.761 34.667H325.98C326.163 34.667 326.346 34.667 326.346 34.4473C326.346 34.3009 326.2 34.2277 326.054 34.2277H325.761V34.667Z" fill="#B7BFC7"/>
<path fill-rule="evenodd" clip-rule="evenodd" d="M338.061 35.7286H345.821C353.802 35.7286 358.524 31.5919 358.524 24.7464C358.524 17.9009 353.802 13.8009 345.821 13.8009H338.097V35.7286H338.061ZM342.966 17.608H345.821C350.983 17.608 353.582 20.1705 353.582 24.7464C353.582 29.3223 350.983 31.8848 345.821 31.8848H342.966V17.608ZM375.144 26.2107H384.442V22.4036H375.144V17.608H385.65V13.8009H370.202V35.7286H385.979V31.9214H375.107L375.144 26.2107ZM413.911 31.9214H404.466V13.8009H399.561V35.7286H413.911V31.9214ZM440.378 13.8009H420.72V17.608H428.078V35.7286H433.02V17.608H440.414V13.8009H440.378ZM468.821 35.7286H463.696L461.537 30.2375H452.604L450.445 35.7286H445.649L454.801 13.7277H459.743L468.821 35.7286ZM460.146 26.5402L457.107 18.7428L454.032 26.5402H460.146Z" fill="#B7BFC7"/>
<g clip-path="url(#clip1_765_96297)">
<path d="M605.846 24.9411L585.397 4.39288V45.4411L605.846 24.9411Z" fill="#B7BFC7"/>
<path d="M564.947 24.9411L585.397 4.39288H544.498L564.947 24.9411Z" fill="#B7BFC7"/>
<path d="M524 24.9411L544.498 45.4411V4.39288L524 24.9411Z" fill="#B7BFC7"/>
<path d="M564.947 24.9411L544.498 45.4411H585.397L564.947 24.9411Z" fill="#B7BFC7"/>
<path d="M623.794 26.147H616.384V33.4788H612.679V16.307H616.384V23.3494H623.794V16.307H627.499V33.4788H623.794V26.147Z" fill="#B7BFC7"/>
<path d="M636.448 33.8164C632.743 33.8164 629.712 32.3211 629.664 28.2211H633.369C633.417 30.054 634.475 31.1635 636.496 31.1635C637.988 31.1635 639.72 30.3917 639.72 28.7035C639.72 27.3529 638.565 26.967 636.641 26.3882L635.39 26.0505C632.695 25.2788 630.001 24.2176 630.001 21.1305C630.001 17.3199 633.561 16.0176 636.785 16.0176C640.105 16.0176 642.992 17.1752 643.04 20.9858H639.335C639.191 19.4423 638.277 18.5258 636.544 18.5258C635.149 18.5258 633.802 19.2493 633.802 20.7929C633.802 22.047 634.957 22.4329 637.362 23.2046L638.806 23.6388C641.741 24.5552 643.618 25.5682 643.618 28.4623C643.569 32.3211 639.816 33.8164 636.448 33.8164Z" fill="#B7BFC7"/>
<path d="M645.687 16.3552H651.653C652.76 16.307 653.915 16.3552 655.021 16.5482C657.09 17.0305 658.678 18.3811 658.678 20.6964C658.678 22.9152 657.283 24.0246 655.262 24.5552C657.571 24.9893 659.304 26.147 659.304 28.7035C659.304 32.6105 655.454 33.4788 652.471 33.4788H645.735L645.687 16.3552ZM651.653 23.4941C653.289 23.4941 654.973 23.1564 654.973 21.1788C654.973 19.3941 653.433 18.9117 651.894 18.9117H649.295V23.4941H651.653ZM651.99 30.9223C653.722 30.9223 655.406 30.5364 655.406 28.4141C655.406 26.2917 653.963 25.9058 652.182 25.9058H649.247V30.9223H651.99Z" fill="#B7BFC7"/>
<path d="M668.927 33.8164C663.393 33.8164 660.94 30.2952 660.94 25.0376C660.94 19.7799 663.682 15.9694 669.119 15.9694C672.536 15.9694 675.856 17.5129 675.952 21.3717H672.103C671.91 19.6352 670.755 18.767 669.119 18.767C665.751 18.767 664.741 22.3847 664.741 25.1341C664.741 27.8835 665.751 31.067 668.975 31.067C670.659 31.067 671.91 30.1505 672.151 28.4141H676C675.615 32.3694 672.487 33.8164 668.927 33.8164Z" fill="#B7BFC7"/>
</g>
<g clip-path="url(#clip2_765_96297)">
<path d="M733.163 25.6444C733.437 25.7364 733.755 25.8733 734.118 26.055C734.756 26.4207 735.301 26.921 735.758 27.5581C736.306 28.4689 736.577 29.5614 736.577 30.8355C736.577 35.2079 733.934 37.3929 728.654 37.3929H718.411C718.137 37.3929 718 37.256 718 36.9823V15.9441C718 15.6704 718.137 15.5335 718.411 15.5335H729.203C731.117 15.5335 732.663 16.0597 733.847 17.105C735.029 18.1527 735.624 19.5425 735.624 21.2721C735.624 22.2749 735.395 23.1621 734.942 23.9361C734.484 24.7124 733.892 25.281 733.163 25.6444ZM728.519 34.2499C730.067 34.2499 731.204 33.9998 731.933 33.4995C732.66 32.9993 733.026 32.1333 733.026 30.904C733.026 29.6746 732.66 28.811 731.933 28.3084C731.204 27.8082 730.065 27.5581 728.519 27.5581H722.099C721.733 27.5581 721.551 27.6949 721.551 27.9686V33.844C721.551 34.1178 721.733 34.2546 722.099 34.2546H728.519V34.2499ZM722.099 18.6765C721.825 18.6765 721.688 18.8134 721.688 19.0871V24.0045C721.688 24.2782 721.825 24.4151 722.099 24.4151H728.382C730.749 24.4151 731.933 23.4594 731.933 21.5458C731.933 19.6321 730.749 18.6765 728.382 18.6765H722.099ZM755.296 25.6444C755.57 25.7364 755.843 25.8733 756.115 26.055C756.841 26.4207 757.389 26.921 757.755 27.5581C758.392 28.4689 758.71 29.5614 758.71 30.8355C758.71 35.2079 756.067 37.3929 750.787 37.3929H740.541C740.268 37.3929 740.131 37.256 740.131 36.9823V15.9441C740.131 15.6704 740.268 15.5335 740.541 15.5335H751.334C753.156 15.5335 754.68 16.0597 755.912 17.105C757.141 18.1527 757.757 19.5425 757.757 21.2721C757.757 22.2749 757.528 23.1621 757.075 23.9361C756.615 24.7124 756.023 25.281 755.296 25.6444ZM744.092 18.6765C743.819 18.6765 743.682 18.8134 743.682 19.0871V24.0045C743.682 24.2782 743.819 24.4151 744.092 24.4151H750.513C752.88 24.4151 754.064 23.4594 754.064 21.5458C754.064 19.6321 752.88 18.6765 750.513 18.6765H744.092ZM750.65 34.2499C752.198 34.2499 753.335 33.9998 754.064 33.4995C754.791 32.9993 755.157 32.1333 755.157 30.904C755.157 29.6746 754.791 28.811 754.064 28.3084C753.335 27.8082 752.195 27.5581 750.65 27.5581H744.092C743.819 27.5581 743.682 27.6949 743.682 27.9686V33.844C743.682 34.1178 743.819 34.2546 744.092 34.2546H750.65V34.2499ZM778.245 15.8072C778.335 15.6255 778.427 15.5335 778.519 15.5335H782.07C782.16 15.5335 782.252 15.5807 782.344 15.6704C782.434 15.7624 782.434 15.8544 782.344 15.9441L771.006 37.256C770.914 37.348 770.801 37.3929 770.664 37.3929C770.527 37.3929 770.412 37.348 770.322 37.256L758.984 15.9441C758.892 15.8544 758.868 15.7624 758.916 15.6704C758.96 15.5807 759.074 15.5335 759.258 15.5335H762.672C762.854 15.5335 762.991 15.6255 763.083 15.8072L770.322 29.4693C770.322 29.5614 770.412 29.6062 770.596 29.6062C770.777 29.6062 770.914 29.5614 771.006 29.4693L778.245 15.8072ZM782.344 33.9785C782.252 34.1626 782.115 34.2523 781.933 34.2523H778.382C778.29 34.2523 778.222 34.2074 778.177 34.1154C778.13 34.0257 778.109 33.9337 778.109 33.8417L789.449 12.5297C789.538 12.4401 789.675 12.3929 789.859 12.3929C790.041 12.3929 790.178 12.4401 790.27 12.5297L801.605 33.8417C801.605 33.9337 801.582 34.0257 801.537 34.1154C801.49 34.2074 801.421 34.2523 801.332 34.2523H797.781C797.597 34.2523 797.46 34.1626 797.37 33.9785L790.265 20.3164C790.173 20.1347 790.036 20.0427 789.855 20.0427C789.671 20.0427 789.534 20.1347 789.444 20.3164L782.344 33.9785Z" fill="#B7BFC7"/>
</g>
<defs>
<clipPath id="clip0_765_96297">
<rect width="235" height="28.7875" fill="white" transform="translate(0 10.4991)"/>
</clipPath>
<clipPath id="clip1_765_96297">
<rect width="152" height="41" fill="white" transform="translate(524 4.39288)"/>
</clipPath>
<clipPath id="clip2_765_96297">
<rect width="83.6055" height="25" fill="white" transform="translate(718 12.3929)"/>
</clipPath>
</defs>
</svg>
